<svg xmlns="http://www.w3.org/2000/svg" width="19" height="19" fill="none" viewBox="0 0 19 19"><path fill="#324a59" fill-rule="evenodd" d="M9.323 10.66c-.53 0-1.057-.175-1.5-.525l-3.55-2.863a.595.595 0 0 1 .745-.925l3.548 2.86a1.22 1.22 0 0 0 1.522-.003L13.6 6.349a.593.593 0 1 1 .75.921l-3.519 2.86c-.444.353-.976.53-1.508.53" clip-rule="evenodd"/><mask id="a" width="18" height="17" x="0" y="1" maskUnits="userSpaceOnUse" style="mask-type:luminance"><path fill="#fff" fill-rule="evenodd" d="M.792 1.583h17.02v15.438H.792z" clip-rule="evenodd"/></mask><g mask="url(#a)"><path fill="#324a59" fill-rule="evenodd" d="M5.414 15.833h7.787c.903 0 1.704-.323 2.319-.936.713-.71 1.105-1.73 1.105-2.873V6.587c0-2.211-1.446-3.816-3.437-3.816H5.416c-1.991 0-3.437 1.605-3.437 3.816v5.437c0 1.142.393 2.163 1.105 2.873.615.613 1.416.936 2.319.936zm-.013 1.188c-1.222 0-2.313-.444-3.155-1.283-.938-.935-1.454-2.254-1.454-3.714V6.587c0-2.853 1.987-5.004 4.624-5.004h7.772c2.637 0 4.624 2.151 4.624 5.004v5.437c0 1.46-.516 2.779-1.454 3.714-.841.839-1.933 1.283-3.157 1.283H5.4" clip-rule="evenodd"/></g></svg>