<svg xmlns="http://www.w3.org/2000/svg" width="16" height="16" fill="none" viewBox="0 0 16 16"><path fill="#324a59" d="M15.555 11.541 13.5 9.486a1.52 1.52 0 0 0-2.15 0l-.903.903a11.5 11.5 0 0 1-4.836-4.836l.903-.903a1.52 1.52 0 0 0 0-2.15L4.459.445a1.52 1.52 0 0 0-2.15 0L.663 2.089C-.195 2.948-.22 4.462.59 6.352c.73 1.704 2.07 3.581 3.774 5.285 1.704 1.703 3.58 3.044 5.285 3.774.916.393 1.744.589 2.452.589.752 0 1.369-.222 1.811-.664l1.644-1.644a1.5 1.5 0 0 0 .446-1.075 1.5 1.5 0 0 0-.446-1.076m-.917 1.233-1.644 1.644c-.445.445-1.505.37-2.835-.2-1.556-.666-3.289-1.909-4.878-3.499-1.59-1.59-2.833-3.322-3.5-4.878-.57-1.33-.644-2.39-.2-2.835l1.645-1.644a.223.223 0 0 1 .315 0l2.055 2.055a.223.223 0 0 1 0 .316L4.04 5.289l.196.413a12.78 12.78 0 0 0 6.062 6.062l.413.196 1.556-1.556a.22.22 0 0 1 .316 0l2.055 2.055a.22.22 0 0 1 0 .315"/></svg>