<svg xmlns="http://www.w3.org/2000/svg" width="18" height="22" fill="none" viewBox="0 0 18 22"><mask id="a" width="18" height="9" x="0" y="13" maskUnits="userSpaceOnUse" style="mask-type:luminance"><path fill="#fff" fill-rule="evenodd" d="M0 13.537h17.16v7.989H0z" clip-rule="evenodd"/></mask><g mask="url(#a)"><path fill="#324a59" fill-rule="evenodd" d="M8.581 15.162c-4.616 0-6.956.793-6.956 2.359 0 1.58 2.34 2.38 6.956 2.38 4.615 0 6.954-.793 6.954-2.359 0-1.58-2.339-2.38-6.954-2.38m0 6.364c-2.122 0-8.581 0-8.581-4.005 0-3.57 4.898-3.984 8.581-3.984 2.122 0 8.579 0 8.579 4.005 0 3.571-4.897 3.984-8.579 3.984" clip-rule="evenodd"/></g><mask id="b" width="13" height="12" x="2" y="0" maskUnits="userSpaceOnUse" style="mask-type:luminance"><path fill="#fff" fill-rule="evenodd" d="M2.827 0h11.505v11.504H2.827z" clip-rule="evenodd"/></mask><g mask="url(#b)"><path fill="#324a59" fill-rule="evenodd" d="M8.581 1.547a4.21 4.21 0 0 0-4.207 4.205A4.196 4.196 0 0 0 8.55 9.958l.031.773v-.773a4.21 4.21 0 0 0 4.204-4.206 4.21 4.21 0 0 0-4.204-4.205m0 9.956h-.035A5.74 5.74 0 0 1 2.827 5.75c0-3.169 2.58-5.75 5.754-5.75a5.76 5.76 0 0 1 5.751 5.753 5.757 5.757 0 0 1-5.751 5.751" clip-rule="evenodd"/></g></svg>