<svg xmlns="http://www.w3.org/2000/svg" width="18" height="15" fill="none" viewBox="0 0 18 15"><path fill="#001833" fill-rule="evenodd" d="M9 5.077c-1.198 0-2.17.974-2.17 2.17a2.172 2.172 0 0 0 4.34 0c0-1.196-.974-2.17-2.17-2.17m0 5.69a3.523 3.523 0 0 1-3.52-3.52A3.524 3.524 0 0 1 9 3.728c1.94 0 3.52 1.58 3.52 3.52 0 1.941-1.58 3.52-3.52 3.52" clip-rule="evenodd"/><mask id="a" width="18" height="15" x="0" y="0" maskUnits="userSpaceOnUse" style="mask-type:luminance"><path fill="#fff" fill-rule="evenodd" d="M0 0h18v14.495H0z" clip-rule="evenodd"/></mask><g mask="url(#a)"><path fill="#001833" fill-rule="evenodd" d="M1.413 7.247C3.087 10.945 5.906 13.144 9 13.145c3.093-.001 5.913-2.2 7.587-5.898C14.913 3.55 12.093 1.351 9 1.35c-3.093.001-5.913 2.2-7.587 5.897m7.589 7.248h-.004c-3.723-.003-7.066-2.612-8.943-6.981a.68.68 0 0 1 0-.533C1.932 2.612 5.275.003 8.997 0Q9-.003 9 0q.002-.003.003 0c3.722.002 7.065 2.611 8.942 6.98a.67.67 0 0 1 0 .533c-1.876 4.37-5.22 6.978-8.942 6.98z" clip-rule="evenodd"/></g></svg>