<svg width="22" height="22" viewBox="0 0 22 22" fill="none" xmlns="http://www.w3.org/2000/svg">
<path d="M0.750122 0.750122L3.00346 1.14012L4.04671 13.5692C4.13012 14.5843 4.97837 15.3632 5.99671 15.36H17.8148C18.7865 15.3621 19.611 14.6471 19.7485 13.6851L20.7766 6.58062C20.8915 5.78654 20.34 5.04987 19.547 4.93504C19.4777 4.92529 3.36529 4.91987 3.36529 4.91987" stroke="#324A59" stroke-width="1.5" stroke-linecap="round" stroke-linejoin="round"/>
<path d="M13.073 8.92375H16.0771" stroke="#324A59" stroke-width="1.5" stroke-linecap="round" stroke-linejoin="round"/>
<path fill-rule="evenodd" clip-rule="evenodd" d="M5.52146 19.1155C5.84755 19.1155 6.1108 19.3798 6.1108 19.7048C6.1108 20.0309 5.84755 20.2952 5.52146 20.2952C5.19538 20.2952 4.93213 20.0309 4.93213 19.7048C4.93213 19.3798 5.19538 19.1155 5.52146 19.1155Z" fill="#001833" stroke="#324A59" stroke-width="1.5" stroke-linecap="round" stroke-linejoin="round"/>
<path fill-rule="evenodd" clip-rule="evenodd" d="M17.7418 19.1155C18.0679 19.1155 18.3322 19.3798 18.3322 19.7048C18.3322 20.0309 18.0679 20.2952 17.7418 20.2952C17.4157 20.2952 17.1525 20.0309 17.1525 19.7048C17.1525 19.3798 17.4157 19.1155 17.7418 19.1155Z" fill="#001833" stroke="#324A59" stroke-width="1.5" stroke-linecap="round" stroke-linejoin="round"/>
</svg>
